<svg xmlns="http://www.w3.org/2000/svg" width="253" height="115" fill="none"><path fill="#fff" stroke="#D4D4D8" d="M.734.819h251.234v113.58H.734z"/><g fill="#231815" clip-path="url('#clip0_3319_1618')"><path d="M34.528 49.729 34 51.157h2.743v9.153h1.85v-9.153h2.215l.52-1.428zM49.677 49.729l.438.777v3.574h-4.13V49.73h-2.256l.414.777v9.804h1.842v-4.768h4.13v4.768h1.834V49.73zM54.635 49.729l.422.777v9.804h5.655l.52-1.453h-4.325v-3.315h3.806l.519-1.437h-4.325v-2.948h3.806l.519-1.428zM214 66.549V44h-4.836l.933 1.695V66.55zM157.557 66.549V44h-4.009c.163.276.909 1.662.909 1.913V59.86L143.584 44h-4.804l1.307 1.988v20.561h3.091V50.664l10.898 15.885h3.481M132.946 63.041V44h-4.86l.965 1.695V62.8c-1.168.685-2.045 1.06-3.4 1.06-2.742 0-4.901-2.455-4.901-5.352V44h-4.836l.925 1.695v14.006c0 4.209 3.213 7.307 7.084 7.307 2.897 0 4.601-1.01 7.019-2.53.69-.434 1.371-.885 2.012-1.428M111.573 44h-5.08l.577 1.695-4.569 8.168L97.024 44h-4.657l7.692 13.563v8.986h3.919v-9.112zM87.303 66.549V44h-4.828l.917 1.695v7.592h-8.788V44h-4.828l.917 1.695V66.55h3.911V56.427h8.788v10.122zM172.398 44h-8.991l.917 1.695V66.55h6.321c1.842 0 3.644-.476 5.234-1.47.576-.326 1.144-.701 1.737-1.06 3.091-1.988 5.006-5.396 5.006-9.304 0-6.038-4.633-10.715-10.216-10.715m2.978 18.774c-.99.643-2.085.71-3.213.71h-3.928v-16.41h2.199c4.577 0 8.196 3.866 8.196 8.768 0 2.623-1.079 5.496-3.246 6.932M196.424 44h-4.227l.698 1.695-8.634 20.854h4.601l-.609-1.704 1.85-4.51h8.788l2.572 6.206h4.252zm-5.039 13.32 3.157-7.608 3.156 7.609h-6.313000000000001"/></g><defs><clipPath id="clip0_3319_1618"><path fill="#fff" d="M34 44h180v23H34z"/></clipPath></defs></svg>