<svg xmlns="http://www.w3.org/2000/svg" width="17" height="17" fill="none"><g clip-path="url('#clip0_85_40')"><path fill="#1E429F" stroke="#1E429F" d="M15.803 7.998a.7.7 0 0 1 .184.361.75.75 0 0 1-.039.415l.465.184-.465-.183a.7.7 0 0 1-.144.227l-4.571 4.787-.006.007a.65.65 0 0 1-.209.15.6.6 0 0 1-.692-.142.7.7 0 0 1-.146-.23.75.75 0 0 1 .005-.554.7.7 0 0 1 .149-.226l.006-.007 2.62-2.744.808-.845H1.643a.62.62 0 0 1-.447-.196A.73.73 0 0 1 1 8.5c0-.192.073-.372.196-.501a.62.62 0 0 1 .447-.196h12.125l-.807-.846-2.622-2.745-.006-.007a.7.7 0 0 1-.15-.226.75.75 0 0 1 .142-.784.6.6 0 0 1 .21-.147.6.6 0 0 1 .482.004.6.6 0 0 1 .209.151l.006.007z"/></g><defs><clipPath id="clip0_85_40"><path fill="#fff" d="M.5.5h16v16H.5z"/></clipPath></defs></svg>