<svg xmlns="http://www.w3.org/2000/svg" width="24" height="24" fill="none"><path fill="#111827" d="M10.8 2.4a1.2 1.2 0 1 0 0 2.4h2.4a1.2 1.2 0 1 0 0-2.4z"/><path fill="#111827" fill-rule="evenodd" d="M4.8 6a2.4 2.4 0 0 1 2.4-2.4 3.6 3.6 0 0 0 3.6 3.6h2.4a3.6 3.6 0 0 0 3.6-3.6A2.4 2.4 0 0 1 19.2 6v13.2a2.4 2.4 0 0 1-2.4 2.4H7.2a2.4 2.4 0 0 1-2.4-2.4zm3.6 4.8a1.2 1.2 0 1 0 0 2.4h.012a1.2 1.2 0 1 0 0-2.4zm3.6 0a1.2 1.2 0 1 0 0 2.4h3.6a1.2 1.2 0 1 0 0-2.4zm-3.6 4.8a1.2 1.2 0 1 0 0 2.4h.012a1.2 1.2 0 1 0 0-2.4zm3.6 0a1.2 1.2 0 1 0 0 2.4h3.6a1.2 1.2 0 1 0 0-2.4z" clip-rule="evenodd"/></svg>