<svg xmlns="http://www.w3.org/2000/svg" width="24" height="25" fill="none"><path fill="#111827" d="M11.719 3.85C6.902 3.85 3 7.787 3 12.568a8.717 8.717 0 0 0 8.719 8.72c4.781 0 8.719-3.903 8.719-8.72 0-4.78-3.938-8.718-8.72-8.718m5.73 4.043a7.23 7.23 0 0 1 1.688 4.64c-.246-.07-2.707-.562-5.168-.246-.211-.492-.387-.914-.668-1.477 2.777-1.124 4.008-2.706 4.148-2.917m-.808-.88c-.141.212-1.266 1.723-3.903 2.708a40 40 0 0 0-2.777-4.36 7.46 7.46 0 0 1 6.68 1.653M8.52 5.854a42 42 0 0 1 2.777 4.325c-3.48.914-6.54.914-6.89.879A7.55 7.55 0 0 1 8.52 5.854m-4.254 6.75v-.246c.316.036 3.937.07 7.629-1.054.246.422.421.843.632 1.265-2.707.774-5.168 2.954-6.363 4.993-1.195-1.301-1.898-3.059-1.898-4.957m2.847 5.872c.809-1.582 2.918-3.657 5.907-4.676 1.054 2.707 1.476 4.992 1.582 5.66a7.45 7.45 0 0 1-7.489-.984m8.754.28c-.07-.421-.492-2.6-1.441-5.308 2.32-.351 4.36.246 4.64.317a7.6 7.6 0 0 1-3.199 4.992"/></svg>