<svg xmlns="http://www.w3.org/2000/svg" width="24" height="25" fill="none"><path fill="#111827" d="M19.137 9.47a7.8 7.8 0 0 0 1.828-1.898 6.9 6.9 0 0 1-2.11.563 3.6 3.6 0 0 0 1.618-2.04 7.8 7.8 0 0 1-2.32.915 3.7 3.7 0 0 0-2.708-1.16 3.69 3.69 0 0 0-3.691 3.691q0 .422.105.844A10.7 10.7 0 0 1 4.23 6.518a3.6 3.6 0 0 0-.492 1.863c0 1.265.633 2.39 1.653 3.059-.598-.036-1.196-.176-1.688-.458v.036a3.696 3.696 0 0 0 2.953 3.62c-.281.071-.633.141-.949.141-.246 0-.457-.035-.703-.07.457 1.477 1.828 2.531 3.445 2.566a7.42 7.42 0 0 1-4.57 1.582c-.316 0-.598-.035-.879-.07 1.617 1.055 3.55 1.652 5.66 1.652 6.785 0 10.477-5.59 10.477-10.476z"/></svg>