<svg xmlns="http://www.w3.org/2000/svg" width="24" height="25" fill="none"><path fill="#111827" d="M8.8 17.56c0-.07-.07-.14-.175-.14s-.176.07-.176.14.07.141.176.106c.105 0 .176-.035.176-.105m-1.09-.175c0 .07.071.175.177.175.07.036.176 0 .21-.07 0-.07-.034-.14-.14-.175-.105-.036-.21 0-.246.07m1.583-.035c-.105 0-.176.07-.176.175 0 .07.106.106.211.07.106-.034.176-.07.14-.14 0-.07-.105-.14-.175-.105m2.285-13.5C6.727 3.85 3 7.576 3 12.428c0 3.902 2.426 7.242 5.941 8.437.457.07.598-.21.598-.422v-2.18s-2.46.528-2.988-1.054c0 0-.387-1.02-.95-1.266 0 0-.808-.562.036-.562 0 0 .879.07 1.37.914.774 1.371 2.04.984 2.567.738.07-.562.281-.949.563-1.195-1.969-.211-3.973-.492-3.973-3.867 0-.985.281-1.442.844-2.075-.106-.246-.387-1.16.105-2.39.703-.211 2.426.95 2.426.95.703-.212 1.441-.282 2.18-.282.773 0 1.511.07 2.215.281 0 0 1.687-1.195 2.425-.95.493 1.231.176 2.145.106 2.391.562.633.914 1.09.914 2.075 0 3.375-2.074 3.656-4.043 3.867.316.281.598.809.598 1.652 0 1.16-.036 2.637-.036 2.918 0 .246.176.527.633.422 3.516-1.16 5.906-4.5 5.906-8.402 0-4.852-3.972-8.578-8.859-8.578M6.41 15.979c-.07.035-.035.14 0 .21.07.036.14.07.211.036.035-.036.035-.141-.035-.211-.07-.035-.14-.07-.176-.035m-.387-.282c-.035.07 0 .106.07.14.071.036.141.036.177-.034q0-.052-.106-.106c-.07-.035-.105-.035-.14 0m1.125 1.266c-.035.035-.035.14.07.21.071.071.177.106.212.036.035-.035.035-.14-.035-.211s-.176-.105-.247-.035m-.386-.527c-.07.035-.07.14 0 .21s.14.106.21.07c.036-.034.036-.14 0-.21-.07-.07-.14-.106-.21-.07"/></svg>