<svg xmlns="http://www.w3.org/2000/svg" width="1161" height="257" fill="none"><path fill="url('#paint0_linear_3894_1107')" fill-rule="evenodd" d="M1 68.98c194.153-2.563 301.059 74.781 301.059 74.781s92.161 66.661 175.721-7.264C557.653 57.443 584.712 1 663.356 1c89.703.855 95.502 139.733 221.186 139.733 125.688 0 128.998-126.022 276.458-125.594v241.434L1 257z" clip-rule="evenodd"/><path stroke="#1C64F2" stroke-width="3" d="M1 69.906c193.699-2.563 300.357 74.757 300.357 74.757s91.946 66.64 175.31-7.262C556.354 58.372 579.647 1.985 658.107 1.985c103.983.992 95.28 139.688 220.67 139.688 125.393 0 131.173-125.591 279.513-125.591"/><defs><linearGradient id="paint0_linear_3894_1107" x1="-915.382" x2="-914.285" y1="-355.358" y2="278.811" gradientUnits="userSpaceOnUse"><stop stop-color="#1C64F2"/><stop offset="1" stop-color="#fff" stop-opacity=".01"/></linearGradient></defs></svg>