<svg xmlns="http://www.w3.org/2000/svg" width="35" height="35" fill="none"><g fill="#1F2937" clip-path="url('#clip0_3894_1424')"><path d="M13.228 17.5a3.93 3.93 0 0 1-1.153 2.781l-5.36 5.36a3.838 3.838 0 0 1-1.033.742 3.9 3.9 0 0 1-1.75.409 3.934 3.934 0 0 1-2.781-6.715L3.73 17.5l-2.578-2.579a3.934 3.934 0 0 1 5.563-5.563l.217.216 5.144 5.143c.74.74 1.153 1.74 1.153 2.783"/><path d="M13.228 17.5a3.93 3.93 0 0 1-1.153 2.781l-5.36 5.36a3.843 3.843 0 0 1-1.033.742 3.934 3.934 0 0 1-1.035-6.306L7.225 17.5l-2.577-2.579a3.934 3.934 0 0 1 1.033-6.304 3.9 3.9 0 0 1 1.033.74l.217.217 5.144 5.143c.74.74 1.153 1.74 1.153 2.783"/><path d="M35 17.5c0 9.113-7.416 16.528-16.531 16.528h-7.89a3.93 3.93 0 0 1-3.934-3.934 3.935 3.935 0 0 1 3.935-3.934h7.89c4.777 0 8.664-3.884 8.664-8.662 0-4.775-3.887-8.661-8.663-8.661h-7.892a3.935 3.935 0 0 1-3.921-4.23A3.93 3.93 0 0 1 10.579.973h7.892C27.586.972 35 8.387 35 17.5"/><path d="M6.93 9.577a3 3 0 0 1-.487-.464q.14.118.271.248zM6.714 25.64q-.133.136-.28.255c.15-.178.322-.34.505-.479z"/><path d="M29.347 17.5c0 7.616-6.196 13.81-13.813 13.81H8.938c-.887 0-1.69-.35-2.282-.92a3.935 3.935 0 0 1 3.922-4.23h7.891c4.776 0 8.664-3.884 8.664-8.661s-3.888-8.662-8.664-8.662h-7.89a3.935 3.935 0 0 1-3.921-4.23 3.28 3.28 0 0 1 2.282-.92h6.594c7.617.003 13.813 6.197 13.813 13.813"/></g><defs><clipPath id="clip0_3894_1424"><path fill="#fff" d="M0 .972h35v33.056H0z"/></clipPath></defs></svg>