<svg xmlns="http://www.w3.org/2000/svg" width="154" height="99" fill="none"><g filter="url('#filter0_dd_3894_1113')"><path fill="#fff" fill-rule="evenodd" d="M78.01 94.15c-2.007 2.467-5.26 2.467-7.267 0l-3.389-3.585A5 5 0 0 0 63.721 89H23.184c-7.019 0-9.564-.696-12.13-2.004-2.565-1.307-4.579-3.225-5.951-5.67S3 76.457 3 69.771V21.229c0-6.686.73-9.11 2.103-11.555 1.372-2.445 3.386-4.363 5.952-5.67C13.62 2.696 16.165 2 23.184 2h107.632c7.019 0 9.564.696 12.129 2.003 2.566 1.308 4.58 3.226 5.952 5.67S151 14.544 151 21.23v48.542c0 6.686-.731 9.11-2.103 11.555s-3.386 4.363-5.952 5.67C140.38 88.305 137.835 89 130.816 89H87.185a10 10 0 0 0-7.267 3.13z" clip-rule="evenodd"/></g><defs><filter id="filter0_dd_3894_1113" width="154" height="100" x="0" y="0" color-interpolation-filters="sRGB" filterUnits="userSpaceOnUse"><feFlood flood-opacity="0" result="BackgroundImageFix"/><feColorMatrix in="SourceAlpha" result="hardAlpha" values="0 0 0 0 0 0 0 0 0 0 0 0 0 0 0 0 0 0 127 0"/><feOffset dy="1"/><feGaussianBlur stdDeviation="1.5"/><feColorMatrix values="0 0 0 0 0 0 0 0 0 0 0 0 0 0 0 0 0 0 0.1 0"/><feBlend in2="BackgroundImageFix" result="effect1_dropShadow_3894_1113"/><feColorMatrix in="SourceAlpha" result="hardAlpha" values="0 0 0 0 0 0 0 0 0 0 0 0 0 0 0 0 0 0 127 0"/><feOffset dy="1"/><feGaussianBlur stdDeviation="1"/><feColorMatrix values="0 0 0 0 0 0 0 0 0 0 0 0 0 0 0 0 0 0 0.06 0"/><feBlend in2="effect1_dropShadow_3894_1113" result="effect2_dropShadow_3894_1113"/><feBlend in="SourceGraphic" in2="effect2_dropShadow_3894_1113" result="shape"/></filter></defs></svg>